<svg width="64" height="64" viewBox="0 0 64 64" xmlns="http://www.w3.org/2000/svg">
  <!-- 背景圓形 -->
  <circle cx="32" cy="32" r="30" fill="#059669" stroke="#FFFFFF" stroke-width="2"/>
  
  <!-- 山脈輪廓 -->
  <path d="M8 40 L16 28 L24 35 L32 22 L40 30 L48 25 L56 35 L56 48 L8 48 Z" fill="#34D399" opacity="0.8"/>
  <path d="M8 45 L14 38 L22 42 L30 32 L38 38 L46 34 L54 40 L56 48 L8 48 Z" fill="#10B981" opacity="0.6"/>
  
  <!-- 軌跡路徑 -->
  <path d="M12 42 Q20 35 28 38 Q36 32 44 36 Q52 30 56 34" 
        fill="none" 
        stroke="#FFFFFF" 
        stroke-width="3" 
        stroke-linecap="round" 
        stroke-dasharray="2,2"/>
  
  <!-- 起點標記 -->
  <circle cx="12" cy="42" r="3" fill="#FFFFFF" stroke="#059669" stroke-width="2"/>
  
  <!-- 終點標記 -->
  <rect x="53" y="31" width="6" height="6" fill="#FFFFFF" stroke="#059669" stroke-width="2" rx="1"/>
  
  <!-- 中心圖標 - 簡化的地圖標記 -->
  <circle cx="32" cy="32" r="5" fill="#FFFFFF"/>
  <circle cx="32" cy="32" r="2" fill="#059669"/>
</svg>